<svg width="45" height="7" viewBox="0 0 45 7" fill="none" xmlns="http://www.w3.org/2000/svg"><path fill-rule="evenodd" clip-rule="evenodd" d="M8.37906 0C6.40958 0 4.96765 1.46533 4.96765 3.5c0 .79333.21981 1.49333.60667 2.06267H.677007C.298938 5.56267 0 5.88933 0 6.28133V7h8.38785c1.96945 0 3.40265-1.46533 3.40265-3.5C11.7817 1.46533 10.3573 0 8.37906 0zm-.00879 5.77733c-1.17817 0-2.03982-.94266-2.03982-2.27733 0-1.316.85286-2.27733 2.03982-2.27733 1.19575 0 2.04863.96133 2.04863 2.27733 0 1.33467-.85288 2.27733-2.04863 2.27733zM19.8621 3.5c0 2.03467-1.4243 3.5-3.4026 3.5C14.49 7 13.048 5.53467 13.048 3.5S14.49 0 16.4595 0c1.9695 0 3.4026 1.46533 3.4026 3.5zm-5.4512 0c0 1.33467.8528 2.27733 2.0398 2.27733 1.1957 0 2.0486-.94266 2.0486-2.27733 0-1.316-.8529-2.27733-2.0486-2.27733-1.187 0-2.0398.96133-2.0398 2.27733zm12.6525-.52267v3.304h-.0264V7h-.677c-.3692 0-.677-.31733-.677-.71867v-3.304c0-1.08266-.633-1.792-1.609-1.792-.9759 0-1.609.71867-1.609 1.792V7h-.677c-.3693 0-.677-.31733-.677-.71867v-3.304C21.111 1.204 22.3155 0 24.074 0c1.7761 0 2.9894 1.204 2.9894 2.97733zM34.264.578667V0h-.6682c-.3781 0-.677.326667-.677.718667V4.032c0 1.07333-.6506 1.77333-1.6266 1.77333-.9759 0-1.609-.7-1.609-1.77333V0h-.6682c-.3781 0-.677.317333-.677.718667V4.04133C28.338 5.80533 29.5425 7 31.3098 7c1.7585 0 2.963-1.204 2.963-2.95867V.858667l-.0088-.28zm6.0055.718663C40.6652.485333 41.4741 0 42.5028 0c1.5123 0 2.5058 1.07333 2.497 2.70667V7h-.677c-.3693 0-.677-.31733-.677-.71867v-3.612c0-.90533-.5275-1.52133-1.3452-1.52133s-1.3628.616-1.3628 1.52133V7h-.6683c-.3692 0-.677-.31733-.677-.71867v-3.612c0-.90533-.5451-1.52133-1.3628-1.52133s-1.3452.616-1.3452 1.52133v4.32134h-.677c-.3693 0-.677-.31734-.677-.71867V2.70667C35.5305 1.07333 36.5152 0 38.0363 0c1.0287 0 1.8376.485333 2.2332 1.29733z" fill="#000"/></svg>