<svg width="121" height="16" viewBox="0 0 121 16" fill="none" xmlns="http://www.w3.org/2000/svg"><g clip-path="url(#clip0)"><path d="M16.5568 1.02487c-1.5898.21169-1.979.42337-2.8497 2.53371-.6399 1.54693-3.91842 9.40212-5.08273 12.31032h-.78169C6.4409 12.0944 4.39925 6.60684 3.04365 3.13521 2.38398 1.39939 1.97499 1.16491.527039 1.02487V.373535H6.55964v.651335c-1.758.18889-1.85365.46896-1.52052 1.3385.59369 1.70977 2.3286 6.37661 3.82273 10.27163 1.25995-3.02548 2.82665-6.83907 3.95795-9.80266.5211-1.3613.2375-1.57298-1.7118-1.80747V.373535h5.462l-.0132.651335zM26.6656 15.6116v-.6513c1.946-.2085 2.1373-.3029 2.1373-2.2797V3.3469c0-2.0159-.1913-2.11034-2.1373-2.32203V.373535h6.3658v.651335c-1.979.21169-2.1637.30613-2.1637 2.32203v9.3109c0 2.0159.1913 2.0875 2.1637 2.2797v.6513l-6.3658.0228zM57.2111 15.8008c-.3067 0-.5706-.026-.8773-.0488-1.735-.1173-2.6618-.5634-3.7073-2.0159-.8774-1.1952-1.7316-2.6738-2.4935-3.86897-.475-.7523-.7817-.89234-1.979-.89234h-.8345v3.68331c0 1.9931.2639 2.1104 2.1637 2.2797v.6513h-6.3558v-.6513c1.979-.2084 2.1373-.3029 2.1373-2.2797V3.30163c0-1.9931-.2606-2.06474-2.1373-2.27969V.370605h6.0557c1.7349 0 2.8991.21169 3.7996.797895.5193.33248.9416.79317 1.2251 1.33641.2834.54324.4183 1.15018.3911 1.7607 0 2.01589-1.3194 3.28275-3.0642 4.03179.4288.7295 1.448 2.2992 2.1637 3.3544.5661.848 1.1922 1.6555 1.8734 2.4165.4529.5263 1.0585.9026 1.7349 1.0779l-.0956.6546zm-8.7636-7.63367c1.2369 0 2.0186-.18563 2.6123-.67739.9268-.68065 1.3193-1.62835 1.3193-2.88543 0-2.51091-1.6854-3.42279-3.5127-3.42279-.6893 0-1.095.09119-1.2599.23448-.2144.16284-.287.39732-.287 1.00632v5.74481h1.128zM84.2635 1.02487c-1.5173.1661-2.0186.40057-2.0879 1.47854-.0264.74904-.0725 1.73581-.0725 3.90803v9.40536h-.9038L71.0373 3.55858v5.86205c0 2.11037.0692 3.16547.1187 3.84617.0462 1.1952.6399 1.5469 2.3484 1.687v.6513h-5.7687v-.6513c1.471-.1173 2.0416-.469 2.1373-1.6284.0692-.7523.1187-1.8075.1187-3.9406V3.41855c0-.65134-.0495-1.03238-.475-1.55019-.4518-.58621-.9499-.72624-2.1142-.84349V.373535h3.5622L81.0344 12.1693V6.41796c0-2.17873-.0462-3.18831-.1187-3.89175-.0726-1.05517-.6168-1.38409-2.5166-1.50134V.373535h5.8644v.651335z" fill="#000"/><g filter="url(#filter0_d)"><path d="M104.168 15.6126v-.6514c1.544-.1856 1.732-.4201 1.402-1.3027-.33-.8825-.785-2.0875-1.283-3.5628h-5.1321c-.3793 1.0552-.7356 1.954-1.0687 2.9311-.5211 1.5241-.188 1.7097 1.758 1.954v.6513h-5.4851v-.6513c1.4975-.1857 1.8768-.3518 2.7079-2.4621L101.982.208395l.761-.140036c1.495 4.008991 3.134 8.441351 4.618 12.499241.759 2.0386.973 2.2275 2.658 2.4132v.6513l-5.851-.0195zm-2.375-12.49923c-.761 2.0159-1.569 4.14903-2.2819 6.00209h4.4429l-2.161-6.00209z" fill="#000"/></g></g><defs><clipPath id="clip0"><path fill="#fff" transform="translate(.527039 .04248)" d="M0 0h119.595v15.8275H0z"/></clipPath><filter id="filter0_d" x="90.3591" y=".068359" width="23.6603" height="23.5637" filterUnits="userSpaceOnUse" color-interpolation-filters="sRGB"><feFlood flood-opacity="0" result="BackgroundImageFix"/><feColorMatrix in="SourceAlpha" values="0 0 0 0 0 0 0 0 0 0 0 0 0 0 0 0 0 0 127 0" result="hardAlpha"/><feOffset dy="4"/><feGaussianBlur stdDeviation="2"/><feColorMatrix values="0 0 0 0 0 0 0 0 0 0 0 0 0 0 0 0 0 0 0.25 0"/><feBlend in2="BackgroundImageFix" result="effect1_dropShadow"/><feBlend in="SourceGraphic" in2="effect1_dropShadow" result="shape"/></filter></defs></svg>