<svg width="66" height="63" viewBox="0 0 66 63" fill="none" xmlns="http://www.w3.org/2000/svg">
<rect x="1.5" y="1.5" width="63" height="60" rx="8.5" stroke="url(#paint0_linear_98_35)" stroke-width="3"/>
<path d="M33 31.0833C31.7844 31.0833 30.6187 30.6004 29.7591 29.7409C28.8996 28.8814 28.4167 27.7156 28.4167 26.5C28.4167 25.2844 28.8996 24.1186 29.7591 23.2591C30.6187 22.3995 31.7844 21.9167 33 21.9167C34.2156 21.9167 35.3814 22.3995 36.2409 23.2591C37.1005 24.1186 37.5834 25.2844 37.5834 26.5C37.5834 27.1019 37.4648 27.6979 37.2345 28.254C37.0041 28.81 36.6665 29.3153 36.2409 29.7409C35.8153 30.1665 35.3101 30.5041 34.754 30.7344C34.1979 30.9648 33.6019 31.0833 33 31.0833ZM33 13.6667C29.5964 13.6667 26.3322 15.0187 23.9255 17.4255C21.5188 19.8322 20.1667 23.0964 20.1667 26.5C20.1667 36.125 33 50.3333 33 50.3333C33 50.3333 45.8334 36.125 45.8334 26.5C45.8334 23.0964 44.4813 19.8322 42.0746 17.4255C39.6678 15.0187 36.4036 13.6667 33 13.6667Z" fill="url(#paint1_linear_98_35)"/>
<defs>
<linearGradient id="paint0_linear_98_35" x1="-12" y1="32" x2="66" y2="32" gradientUnits="userSpaceOnUse">
<stop stop-color="#FF5637"/>
<stop offset="1" stop-color="#F7084C"/>
</linearGradient>
<linearGradient id="paint1_linear_98_35" x1="15.5" y1="32.291" x2="45.8334" y2="32.291" gradientUnits="userSpaceOnUse">
<stop stop-color="#FF5637"/>
<stop offset="1" stop-color="#F7084C"/>
</linearGradient>
</defs>
</svg>
