<svg width="66" height="63" viewBox="0 0 66 63" fill="none" xmlns="http://www.w3.org/2000/svg">
<g clip-path="url(#clip0_98_31)">
<g clip-path="url(#clip1_98_31)">
<path d="M33 13.6667C43.1255 13.6667 51.3333 21.8745 51.3333 32C51.3333 42.1255 43.1255 50.3333 33 50.3333C22.8745 50.3333 14.6667 42.1255 14.6667 32C14.6667 21.8745 22.8745 13.6667 33 13.6667ZM33 21C32.5138 21 32.0474 21.1931 31.7036 21.537C31.3598 21.8808 31.1667 22.3471 31.1667 22.8333V32C31.1668 32.4862 31.36 32.9524 31.7038 33.2962L37.2038 38.7962C37.5496 39.1301 38.0127 39.3149 38.4934 39.3107C38.9741 39.3065 39.4339 39.1137 39.7738 38.7738C40.1137 38.4339 40.3065 37.9741 40.3107 37.4934C40.3149 37.0127 40.1301 36.5496 39.7962 36.2038L34.8333 31.241V22.8333C34.8333 22.3471 34.6402 21.8808 34.2964 21.537C33.9525 21.1931 33.4862 21 33 21Z" fill="url(#paint0_linear_98_31)"/>
</g>
</g>
<rect x="1.5" y="1.5" width="63" height="60" rx="8.5" stroke="url(#paint1_linear_98_31)" stroke-width="3"/>
<defs>
<linearGradient id="paint0_linear_98_31" x1="7.99999" y1="32.291" x2="51.3333" y2="32.291" gradientUnits="userSpaceOnUse">
<stop stop-color="#FF5637"/>
<stop offset="1" stop-color="#F7084C"/>
</linearGradient>
<linearGradient id="paint1_linear_98_31" x1="-12" y1="32" x2="66" y2="32" gradientUnits="userSpaceOnUse">
<stop stop-color="#FF5637"/>
<stop offset="1" stop-color="#F7084C"/>
</linearGradient>
<clipPath id="clip0_98_31">
<rect width="44" height="44" fill="white" transform="translate(11 10)"/>
</clipPath>
<clipPath id="clip1_98_31">
<rect width="44" height="44" fill="white" transform="translate(11 10)"/>
</clipPath>
</defs>
</svg>
