<?xml version="1.0" encoding="utf-8"?><svg viewBox="0 0 121 21" xmlns="http://www.w3.org/2000/svg" xmlns:xlink="http://www.w3.org/1999/xlink"><style>:root>svg{display:none}:root>svg:target{display:block}</style><svg fill="none" viewBox="0 0 45 7" id="bonum-logo-top" xmlns="http://www.w3.org/2000/svg"><path fill-rule="evenodd" clip-rule="evenodd" d="M8.38 0C6.41 0 4.967 1.465 4.967 3.5c0 .793.22 1.493.606 2.063H.677c-.378 0-.677.326-.677.718V7h8.388c1.97 0 3.403-1.465 3.403-3.5C11.78 1.465 10.357 0 8.378 0zm-.01 5.777c-1.178 0-2.04-.942-2.04-2.277 0-1.316.853-2.277 2.04-2.277 1.196 0 2.049.961 2.049 2.277 0 1.335-.853 2.277-2.049 2.277zM19.862 3.5c0 2.035-1.424 3.5-3.402 3.5-1.97 0-3.412-1.465-3.412-3.5S14.49 0 16.459 0c1.97 0 3.403 1.465 3.403 3.5zm-5.451 0c0 1.335.853 2.277 2.04 2.277 1.195 0 2.048-.942 2.048-2.277 0-1.316-.853-2.277-2.048-2.277-1.187 0-2.04.961-2.04 2.277zm12.652-.523v3.304h-.026V7h-.677c-.37 0-.677-.317-.677-.719V2.977c0-1.082-.633-1.792-1.609-1.792s-1.609.719-1.609 1.792V7h-.677c-.37 0-.677-.317-.677-.719V2.977C21.111 1.204 22.315 0 24.074 0c1.776 0 2.99 1.204 2.99 2.977zM34.264.58V0h-.668c-.378 0-.677.327-.677.719v3.313c0 1.073-.65 1.773-1.627 1.773-.976 0-1.609-.7-1.609-1.773V0h-.668c-.378 0-.677.317-.677.719V4.04C28.338 5.805 29.542 7 31.31 7c1.758 0 2.963-1.204 2.963-2.959V.86l-.009-.28zm6.005.718C40.666.485 41.474 0 42.504 0 44.015 0 45.009 1.073 45 2.707V7h-.677c-.37 0-.677-.317-.677-.719V2.67c0-.905-.528-1.521-1.345-1.521s-1.363.616-1.363 1.521V7h-.668c-.37 0-.678-.317-.678-.719V2.67c0-.905-.545-1.521-1.362-1.521s-1.345.616-1.345 1.521v4.322h-.677c-.37 0-.677-.318-.677-.719V2.707c0-1.634.984-2.707 2.505-2.707 1.029 0 1.838.485 2.233 1.297z" fill="#000"/></svg><svg fill="none" viewBox="0 0 20 20" id="camera" xmlns="http://www.w3.org/2000/svg"><rect x="2" y="2" width="16" height="16" rx="5" stroke="#000"/><rect x="6.444" y="6.444" width="7" height="7" rx="3.5" stroke="#000"/><rect x="13.556" y="4.667" width="1" height="1" rx=".5" stroke="#000"/></svg><svg fill="none" viewBox="0 0 21 21" id="cart" xmlns="http://www.w3.org/2000/svg"><path d="M5.932 6.566h10.963l.997 11.881H4.936l.996-11.881z" stroke="#000" stroke-width=".997"/><path d="M14.58 8.442V5.57A3.069 3.069 0 0011.51 2.5v0A3.069 3.069 0 008.443 5.57v2.872" stroke="#000" stroke-width=".997" stroke-linecap="round" stroke-linejoin="round"/></svg><svg fill="none" viewBox="0 0 21 21" id="like" xmlns="http://www.w3.org/2000/svg"><path clip-rule="evenodd" d="M16.994 4.653a3.69 3.69 0 00-2.68-1.155 3.692 3.692 0 00-2.682 1.155l-1.477 1.531L8.68 4.653a3.692 3.692 0 00-2.681-1.155 3.692 3.692 0 00-2.681 1.155c-1.513 1.568-1.512 4.142 0 5.709l6.838 7.088 6.84-7.088c1.511-1.567 1.512-4.141 0-5.71z" stroke="#000" stroke-width=".997"/></svg><svg fill="none" viewBox="0 0 18 13" id="menu" xmlns="http://www.w3.org/2000/svg"><path fill="#000" d="M0 0h18v1H0zm0 6h18v1H0zm0 6h18v1H0z"/></svg><svg fill="none" viewBox="0 0 121 16" id="virna-logo" xmlns="http://www.w3.org/2000/svg"><g clip-path="url(#fclip0)"><path d="M16.557 1.025c-1.59.212-1.98.423-2.85 2.534-.64 1.547-3.918 9.402-5.083 12.31h-.781c-1.402-3.775-3.444-9.262-4.8-12.734C2.385 1.4 1.976 1.165.528 1.025V.374H6.56v.65c-1.758.19-1.854.47-1.52 1.34.593 1.71 2.328 6.376 3.822 10.271 1.26-3.025 2.827-6.84 3.958-9.803.52-1.361.237-1.573-1.712-1.807V.374h5.462l-.013.65zm10.109 14.587v-.652c1.946-.208 2.137-.303 2.137-2.28V3.348c0-2.016-.191-2.11-2.137-2.322V.374h6.365v.65c-1.979.213-2.163.307-2.163 2.323v9.31c0 2.017.191 2.088 2.163 2.28v.652l-6.365.023zm30.545.189c-.307 0-.57-.026-.877-.049-1.735-.117-2.662-.563-3.707-2.016-.878-1.195-1.732-2.674-2.494-3.869-.475-.752-.782-.892-1.979-.892h-.834v3.683c0 1.993.263 2.11 2.163 2.28v.651h-6.356v-.651c1.98-.209 2.138-.303 2.138-2.28V3.302c0-1.993-.26-2.065-2.138-2.28V.37h6.056c1.735 0 2.9.211 3.8.798.519.332.941.793 1.225 1.336.283.543.418 1.15.39 1.76 0 2.017-1.318 3.283-3.063 4.032.429.73 1.448 2.3 2.163 3.355a21.628 21.628 0 001.874 2.416 3.42 3.42 0 001.735 1.078l-.096.655zm-8.763-7.634c1.236 0 2.018-.185 2.612-.677.927-.68 1.32-1.629 1.32-2.886 0-2.51-1.686-3.422-3.514-3.422-.689 0-1.095.09-1.26.234-.214.163-.287.397-.287 1.006v5.745h1.128zm35.815-7.142c-1.517.166-2.018.4-2.087 1.478-.027.75-.073 1.736-.073 3.908v9.406H81.2L71.037 3.559V9.42c0 2.11.07 3.165.119 3.846.046 1.195.64 1.547 2.348 1.687v.651h-5.768v-.651c1.47-.117 2.041-.47 2.137-1.629.07-.752.119-1.807.119-3.94V3.419c0-.652-.05-1.033-.475-1.55-.452-.587-.95-.727-2.114-.844V.374h3.562l10.07 11.795V6.418c0-2.179-.047-3.188-.12-3.892-.072-1.055-.616-1.384-2.516-1.501V.374h5.865v.65z" fill="#000"/><g filter="url(#ffilter0_d)"><path d="M104.168 15.613v-.652c1.544-.185 1.732-.42 1.402-1.303-.33-.882-.785-2.087-1.283-3.562h-5.132c-.38 1.055-.736 1.954-1.069 2.93-.52 1.525-.188 1.71 1.758 1.955v.651H94.36v-.651c1.498-.186 1.877-.352 2.708-2.462l4.915-12.31.761-.14a2170.75 2170.75 0 014.618 12.499c.759 2.038.973 2.227 2.658 2.413v.651l-5.851-.02zm-2.375-12.5a1064.37 1064.37 0 01-2.282 6.002h4.443l-2.161-6.002z" fill="#000"/></g></g><defs><clipPath id="fclip0"><path fill="#fff" transform="translate(.527 .042)" d="M0 0h119.595v15.828H0z"/></clipPath><filter id="ffilter0_d" x="90.359" y=".068" width="23.66" height="23.564" filterUnits="userSpaceOnUse" color-interpolation-filters="sRGB"><feFlood flood-opacity="0" result="BackgroundImageFix"/><feColorMatrix in="SourceAlpha" values="0 0 0 0 0 0 0 0 0 0 0 0 0 0 0 0 0 0 127 0" result="hardAlpha"/><feOffset dy="4"/><feGaussianBlur stdDeviation="2"/><feColorMatrix values="0 0 0 0 0 0 0 0 0 0 0 0 0 0 0 0 0 0 0.25 0"/><feBlend in2="BackgroundImageFix" result="effect1_dropShadow"/><feBlend in="SourceGraphic" in2="effect1_dropShadow" result="shape"/></filter></defs></svg></svg>